<?xml version="1.0" standalone="no"?>
<!DOCTYPE svg PUBLIC "-//W3C//DTD SVG 20010904//EN"
 "http://www.w3.org/TR/2001/REC-SVG-20010904/DTD/svg10.dtd">
<svg version="1.0" xmlns="http://www.w3.org/2000/svg"
 width="300.000000pt" height="170.000000pt" viewBox="0 0 300.000000 170.000000"
 preserveAspectRatio="xMidYMid meet">
<metadata>
Created by potrace 1.10, written by Peter Selinger 2001-2011
</metadata>
<g transform="translate(0.000000,170.000000) scale(0.100000,-0.100000)"
fill="#000000" stroke="none">
<path d="M32 1678 c-19 -19 -17 -1631 2 -1647 10 -8 403 -10 1477 -9 l1464 3
0 830 0 830 -1465 3 c-1132 1 -1469 -1 -1478 -10z m2909 -29 c13 -20 12 -1555
-1 -1580 -11 -19 -37 -19 -1425 -19 -879 0 -1424 4 -1439 10 l-26 9 1 772 c0
430 5 782 10 795 l8 24 1198 2 c1657 4 1663 4 1674 -13z"/>
<path d="M1420 1320 c-25 -3 -61 -16 -80 -28 -19 -12 -43 -25 -52 -28 -9 -3
-19 -12 -22 -20 -4 -11 1 -10 22 3 15 10 29 21 32 24 3 4 29 15 58 24 71 23
234 18 275 -9 15 -10 27 -15 27 -10 0 4 16 -7 35 -26 19 -19 35 -31 35 -26 0
21 -66 66 -135 91 -28 10 -141 14 -195 5z"/>
<path d="M1428 1293 c-10 -3 -18 -9 -18 -14 0 -5 -11 -9 -24 -9 -13 0 -29 -7
-36 -15 -7 -8 -19 -15 -28 -15 -14 0 -102 -87 -102 -100 0 -3 18 14 40 37 86
90 249 129 343 82 23 -12 42 -21 42 -19 0 7 52 -14 68 -28 9 -8 19 -13 22 -10
7 6 -44 41 -65 45 -8 1 -16 7 -18 12 -2 6 -14 11 -27 11 -13 0 -25 5 -27 11
-4 11 -135 20 -170 12z"/>
<path d="M1465 1200 c-3 -5 -21 -10 -40 -10 -19 0 -37 -4 -40 -10 -4 -6 22
-10 72 -10 92 0 143 -20 157 -63 8 -21 6 -34 -7 -57 -17 -28 -17 -29 2 -39 11
-6 23 -20 26 -32 4 -11 9 -18 12 -16 2 3 -2 18 -10 34 -9 18 -13 46 -11 78 4
43 1 54 -21 78 -16 18 -39 30 -63 34 -20 3 -45 10 -54 14 -10 6 -19 5 -23 -1z"/>
<path d="M1354 1010 c0 -85 2 -120 3 -77 2 42 2 112 0 155 -1 42 -3 7 -3 -78z"/>
<path d="M1460 1080 c0 -24 4 -30 23 -30 26 0 41 10 45 29 4 17 -16 31 -45 31
-19 0 -23 -6 -23 -30z"/>
<path d="M1460 955 c0 -22 4 -25 39 -25 43 0 55 9 45 34 -4 11 -19 16 -45 16
-35 0 -39 -3 -39 -25z"/>
<path d="M1635 908 c-11 -43 -52 -58 -167 -59 -78 -1 -96 -3 -73 -10 17 -5 62
-9 102 -10 60 -1 78 3 103 21 29 21 56 67 46 78 -3 2 -8 -7 -11 -20z"/>
<path d="M1730 842 c-14 -9 -29 -22 -35 -29 -38 -47 -262 -59 -349 -19 -25 11
-44 26 -42 31 2 6 -4 11 -14 11 -14 0 -15 -4 -6 -18 6 -10 20 -21 31 -24 11
-4 32 -15 47 -26 24 -16 43 -19 140 -17 122 2 159 14 230 79 36 33 36 37 -2
12z"/>
<path d="M1250 810 c11 -11 20 -27 20 -36 0 -8 5 -12 10 -9 6 3 22 -3 38 -13
32 -23 127 -53 146 -46 7 3 24 -4 37 -15 24 -20 24 -20 2 -21 -12 0 -23 -6
-26 -12 -3 -10 -10 -10 -31 1 -17 10 -25 20 -21 30 3 11 0 9 -10 -3 -8 -11
-18 -17 -21 -13 -4 3 -21 0 -39 -7 -25 -11 -36 -11 -44 -3 -9 9 -16 9 -29 0
-13 -7 -24 -8 -36 -1 -13 7 -22 6 -33 -5 -13 -13 -19 -13 -41 -1 -34 18 -42
11 -42 -39 0 -31 -3 -38 -10 -27 -8 12 -10 12 -10 -5 0 -17 -5 -14 -30 15 -32
39 -41 30 -10 -10 27 -35 24 -81 -3 -53 -11 10 -57 13 -57 2 0 -5 -7 -9 -16
-9 -11 0 -14 5 -9 18 4 9 10 25 12 35 3 9 11 17 18 17 7 0 15 9 18 20 3 11 2
20 -1 20 -13 -1 -62 -78 -62 -97 0 -17 8 -20 64 -20 57 0 65 3 79 26 l16 26 1
-26 c0 -34 6 -39 39 -29 16 4 35 3 45 -2 12 -7 22 -6 34 5 14 13 19 13 30 1
17 -18 41 -7 48 22 8 32 20 30 39 -6 23 -45 43 -37 71 26 14 31 27 54 30 51 3
-3 5 -23 6 -46 0 -45 9 -56 50 -63 19 -4 34 1 49 15 15 14 23 17 29 8 12 -21
84 -25 111 -8 16 11 29 13 39 7 25 -16 52 -11 57 10 3 11 9 17 14 14 5 -3 7
-9 4 -14 -3 -5 3 -14 14 -20 14 -7 22 -7 26 1 8 13 8 126 0 139 -9 14 -34 0
-41 -22 -4 -15 -9 -17 -17 -9 -16 16 -27 13 -27 -8 0 -13 9 -20 30 -23 27 -4
30 -2 30 24 0 15 5 28 10 28 6 0 10 -27 10 -60 0 -33 -4 -60 -10 -60 -5 0 -10
9 -10 20 0 16 -7 20 -31 20 -26 0 -31 -3 -26 -20 3 -13 0 -20 -9 -20 -10 0
-14 15 -14 59 0 48 3 61 18 65 13 4 13 4 -3 3 -28 -3 -44 -41 -35 -83 l8 -35
-24 15 c-13 9 -31 16 -41 17 -11 0 -13 3 -5 6 6 2 9 9 6 15 -4 6 2 8 17 3 l24
-7 -23 17 c-27 20 -67 14 -76 -11 -10 -26 14 -46 51 -42 18 1 33 -2 33 -7 1
-18 -71 -17 -91 1 -25 23 -24 48 5 78 29 32 72 35 81 5 10 -29 17 -17 9 15 -5
20 -12 26 -33 26 -37 0 -72 -11 -66 -20 3 -4 -5 -10 -16 -13 -12 -3 -19 -3
-16 -1 3 3 -8 18 -24 33 -28 27 -40 49 -19 36 18 -11 131 29 163 58 l32 27
-35 -18 c-98 -51 -227 -69 -297 -41 -68 27 -133 63 -133 75 0 6 -7 15 -16 18
-25 9 -25 7 -4 -14z m-82 -190 c-3 -16 -3 -30 0 -30 2 0 17 14 32 30 15 17 36
30 47 30 14 -1 12 -6 -14 -30 -18 -16 -33 -32 -33 -35 0 -3 12 -17 26 -30 26
-24 26 -25 6 -25 -12 0 -26 9 -32 20 -6 11 -15 20 -20 20 -6 0 -10 -9 -10 -20
0 -11 -7 -20 -15 -20 -12 0 -15 13 -15 60 0 49 3 60 16 60 12 0 15 -7 12 -30z
m142 -30 c0 -47 -3 -60 -15 -60 -12 0 -15 13 -14 60 1 43 5 60 15 60 10 0 14
-16 14 -60z m130 45 c0 -8 -7 -15 -15 -15 -11 0 -15 -12 -15 -45 0 -33 -4 -45
-15 -45 -11 0 -15 12 -15 45 0 38 -3 45 -20 45 -11 0 -20 7 -20 15 0 11 12 15
50 15 38 0 50 -4 50 -15z m120 0 c0 -10 -11 -15 -35 -15 -24 0 -35 5 -35 15 0
10 11 15 35 15 24 0 35 -5 35 -15z m-10 -45 c0 -5 -13 -10 -30 -10 -16 0 -30
5 -30 10 0 6 14 10 30 10 17 0 30 -4 30 -10z m10 -50 c0 -5 -16 -10 -35 -10
-19 0 -35 5 -35 10 0 6 16 10 35 10 19 0 35 -4 35 -10z"/>
<path d="M2017 653 c6 -5 14 -33 16 -63 l4 -55 -1 59 c-1 44 -5 60 -16 63 -10
3 -11 2 -3 -4z"/>
<path d="M843 585 c0 -33 2 -45 4 -27 2 18 2 45 0 60 -2 15 -4 0 -4 -33z"/>
<path d="M876 565 c4 -8 15 -15 25 -15 10 0 19 7 19 15 0 9 -9 15 -25 15 -18
0 -23 -4 -19 -15z"/>
<path d="M1458 445 c-15 -33 3 -56 30 -39 22 14 28 44 10 55 -21 14 -28 11
-40 -16z m32 -16 c-12 -22 -30 -25 -30 -6 0 17 21 38 32 31 4 -3 3 -14 -2 -25z"/>
<path d="M1570 456 c14 -14 13 -43 -2 -49 -7 -3 4 -6 25 -6 30 -1 40 3 44 18
3 13 12 17 26 15 13 -3 16 -2 7 2 -8 4 -18 12 -22 18 -4 6 -25 11 -48 12 -28
0 -38 -2 -30 -10z m60 -12 c0 -9 -5 -12 -12 -8 -10 6 -10 5 -1 -7 10 -13 10
-16 -2 -16 -9 0 -15 10 -15 24 0 14 6 23 15 23 8 0 15 -7 15 -16z"/>
<path d="M1316 435 c4 -15 2 -25 -4 -25 -6 0 -12 8 -14 18 -3 14 -5 13 -10 -5
-5 -19 -2 -23 18 -23 20 0 24 5 24 30 0 17 -5 30 -10 30 -6 0 -8 -11 -4 -25z"/>
</g>
</svg>
